# xmcd
#
# Track frame offsets: 
#        187
#        26315
#        53592
#        68575
#        88780
#        104392
#        121087
#        147870
#
# Disc length: 2274 seconds
#
# Revision: 1
# Processed by: cddbd v1.5.2PL0 Copyright (c) Steve Scherf et al.
# Submitted via: ExactAudioCopy v1.0b3
#
DISCID=5d08e008
DTITLE=Sakhile - Sakhile
DYEAR=1982
DGENRE=Jazz
TTITLE0=Mantombi
TTITLE1=Isililo
TTITLE2=Kusinwakudedelwane
TTITLE3=Ubuhlebakho
TTITLE4=Beautiful Feeling
TTITLE5=Sakhile
TTITLE6=A Night To Remember
TTITLE7=Idayimane
EXTD=YEAR: 1997
EXTT0=
EXTT1=
EXTT2=
EXTT3=
EXTT4=
EXTT5=
EXTT6=
EXTT7=
PLAYORDER=
